<svg xmlns="http://www.w3.org/2000/svg" width="21" height="28" viewBox="0 0 21 28"><path fill="#fff" d="M18.37 0H2.62A2.63 2.63 0 0 0 0 2.62v18.9c0 .82.45 1.5 1.08 1.97 0 .03-.03.08-.03.13v1.84c0 1.03.81 1.84 1.84 1.84h.52c1.03 0 1.84-.81 1.84-1.84v-1.31h10.5v1.31c0 1.03.81 1.84 1.84 1.84h.52c1.03 0 1.84-.81 1.84-1.84v-1.84a2.61 2.61 0 0 0 1.05-2.1V2.62A2.63 2.63 0 0 0 18.37 0"/><path d="M19.95 2.62c0-.86-.71-1.57-1.58-1.57H2.62c-.86 0-1.57.71-1.57 1.57V4.2h18.9zM1.05 15.75h18.9V5.25H1.05zm18.9 1.05H1.05v4.72c0 .87 1 1.58 1.84 1.58h15.48c.87 0 1.58-.71 1.58-1.58zm-1.05 7.3c-.16.02-.34.05-.53.05H16.8v1.31c0 .45.34.79.79.79h.52c.45 0 .79-.34.79-.79zm-14.7.05H2.89c-.27 0-.53-.05-.79-.13v1.44c0 .45.34.79.79.79h.52c.45 0 .79-.34.79-.79zM18.37 0A2.63 2.63 0 0 1 21 2.62v18.9c0 .87-.42 1.63-1.05 2.1v1.84c0 1.03-.81 1.84-1.84 1.84h-.52a1.82 1.82 0 0 1-1.84-1.84v-1.31H5.25v1.31c0 1.03-.81 1.84-1.84 1.84h-.52a1.82 1.82 0 0 1-1.84-1.84v-1.84c0-.05.03-.1.03-.13A2.47 2.47 0 0 1 0 21.52V2.62A2.63 2.63 0 0 1 2.62 0z"/><path d="M9.94 2H6.53a.53.53 0 0 0-.53.52c0 .29.24.53.53.53h3.41a.52.52 0 0 0 0-1.05M12.31 2h-.79a.53.53 0 0 0-.52.52c0 .29.24.53.52.53h.79c.29 0 .53-.24.53-.53a.53.53 0 0 0-.53-.52M4.1 19.57c0 .29-.24.53-.53.53a.53.53 0 0 1-.52-.53c0-.28.24-.52.52-.52.29 0 .53.24.53.52zm1.05 0c0-.86-.71-1.57-1.58-1.57-.86 0-1.57.71-1.57 1.57 0 .87.71 1.58 1.57 1.58.87 0 1.58-.71 1.58-1.58zM17.1 19.57c0 .29-.24.53-.53.53a.53.53 0 0 1-.52-.53c0-.28.24-.52.52-.52.29 0 .53.24.53.52zm1.05 0c0-.86-.71-1.57-1.58-1.57-.86 0-1.57.71-1.57 1.57 0 .87.71 1.58 1.57 1.58.87 0 1.58-.71 1.58-1.58z"/></svg>