<svg xmlns="http://www.w3.org/2000/svg" width="22" height="24" viewBox="0 0 22 24"><path d="M16.35 17.19H.41a.4.4 0 0 1-.41-.41c0-.23.18-.42.41-.42h15.94c.73 0 1.83-1.02 1.83-2.29v-8.9c0-1.22.6-2.36 1.6-3.05l1.53-1.05a.42.42 0 0 1 .47.69l-1.53 1.05a2.84 2.84 0 0 0-1.24 2.36v8.9c0 1.68-1.46 3.12-2.66 3.12"/><path fill="#6fb0e0" d="M14.46 13.69H2.36c-.75 0-1.36-.61-1.36-1.37V5.37C1 4.61 1.61 4 2.36 4h12.1c.75 0 1.36.61 1.36 1.37v6.95c0 .76-.61 1.37-1.36 1.37"/><path fill="#6fb0e0" d="M12.42 4.36h-.82V2.67c0-.46-.49-.84-1.09-.84h-4.6c-.6 0-1.08.38-1.08.84v1.69H4V2.67C4 1.75 4.86 1 5.91 1h4.6c1.06 0 1.91.75 1.91 1.67z"/><path d="M.83 20.82a1.98 1.98 0 1 0 3.95 0 2 2 0 0 0-1.98-1.99c-1.09 0-1.97.9-1.97 1.99zm-.83 0A2.82 2.82 0 0 1 2.8 18c1.55 0 2.8 1.27 2.8 2.82a2.81 2.81 0 0 1-2.8 2.83A2.82 2.82 0 0 1 0 20.82zM13.83 20.82a1.98 1.98 0 1 0 3.95 0 2 2 0 0 0-1.98-1.99c-1.09 0-1.97.9-1.97 1.99zm-.83 0A2.82 2.82 0 0 1 15.8 18c1.55 0 2.8 1.27 2.8 2.82a2.81 2.81 0 0 1-2.8 2.83 2.82 2.82 0 0 1-2.8-2.83z"/></svg>