<svg xmlns="http://www.w3.org/2000/svg" width="88" height="92" viewBox="0 0 88 92"><path d="M65.44 65H1.64C.72 65 0 64.28 0 63.36c0-.92.72-1.64 1.64-1.64h63.8c2.88 0 7.28-4.04 7.28-9.04v-35.2c0-4.84 2.4-9.36 6.4-12.04l6.12-4.16c.76-.52 1.8-.32 2.32.44.52.76.32 1.76-.44 2.28L81 8.16a11.15 11.15 0 0 0-4.96 9.32v35.2c0 6.64-5.84 12.32-10.6 12.32"/><path d="M9.44 17C6.44 17 4 19.44 4 22.4v27.48c0 3 2.44 5.4 5.44 5.4h48.4c3 0 5.44-2.4 5.44-5.4V22.4c0-2.96-2.44-5.4-5.44-5.4zm50.52 5.4v27.48c0 1.16-.96 2.12-2.12 2.12H9.44a2.1 2.1 0 0 1-2.12-2.12V22.4a2.1 2.1 0 0 1 2.12-2.12h48.4c1.16 0 2.12.96 2.12 2.12zM48.04 15.92c-.92 0-1.64-.72-1.64-1.64V7.6c0-1.84-1.96-3.32-4.36-3.32h-18.4c-2.4 0-4.32 1.48-4.32 3.32v6.68c0 .92-.76 1.64-1.68 1.64-.92 0-1.64-.72-1.64-1.64V7.6C16 3.96 19.44 1 23.64 1h18.4c4.24 0 7.64 2.96 7.64 6.6v6.68c0 .92-.72 1.64-1.64 1.64M3.32 80.16a7.9 7.9 0 0 0 15.8 0 7.9 7.9 0 0 0-15.8 0zm-3.32 0a11.2 11.2 0 0 1 22.4 0 11.2 11.2 0 1 1-22.4 0zM55.32 80.16a7.9 7.9 0 0 0 15.8 0 7.9 7.9 0 0 0-15.8 0zm-3.32 0a11.2 11.2 0 0 1 22.4 0 11.2 11.2 0 1 1-22.4 0z"/></svg>