<?xml version="1.0" encoding="utf-8"?>
<!-- Generator: Avocode 2.4.5 - http://avocode.com -->
<svg height="49" width="48" xmlns:xlink="http://www.w3.org/1999/xlink" xmlns="http://www.w3.org/2000/svg" viewBox="0 0 48 49">
    <path stroke-linejoin="miter" stroke-linecap="butt" stroke-width="1" stroke="#737373" fill="none" fill-rule="evenodd" d="M 0 24.58 C 0 11.32 10.74 0.58 24 0.58 L 24 0.58 C 37.25 0.58 48 11.32 48 24.58 L 48 24.58 C 48 37.83 37.26 48.58 24 48.58 L 24 48.58 C 10.75 48.58 0 37.84 0 24.58 L 0 24.58 Z M 0 24.58" />
    <path fill="#737373" fill-rule="evenodd" d="M 31.39 25.29 C 30.98 25.03 30.52 24.83 30.01 24.68 C 29.91 24.64 29.83 24.61 29.79 24.6 C 29.74 24.58 29.69 24.55 29.63 24.5 C 29.56 24.45 29.54 24.4 29.57 24.34 C 29.59 24.28 29.61 24.19 29.63 24.08 C 30.03 23.08 30.03 22.31 29.63 21.77 C 29.22 21.24 28.53 20.98 27.58 20.98 C 26.62 20.98 25.53 21.23 24.29 21.74 L 24.21 21.77 C 24.15 21.79 24.09 21.8 24.03 21.81 C 23.96 21.83 23.89 21.83 23.83 21.82 C 23.77 21.81 23.72 21.78 23.7 21.73 C 23.67 21.68 23.67 21.59 23.71 21.47 C 24.11 20.22 24.02 19.31 23.44 18.76 C 22.78 18.12 21.68 18.09 20.14 18.67 C 18.6 19.25 17.08 20.27 15.57 21.73 C 14.43 22.84 13.55 23.95 12.93 25.08 C 12.31 26.2 12 27.26 12 28.26 C 12 29.19 12.29 30.06 12.87 30.85 C 13.45 31.64 14.21 32.29 15.17 32.81 C 16.12 33.32 17.19 33.72 18.38 34.01 C 19.58 34.3 20.81 34.45 22.06 34.45 C 23.32 34.45 24.53 34.31 25.68 34.05 C 26.84 33.78 27.85 33.42 28.71 32.97 C 29.57 32.52 30.32 32.01 30.96 31.44 C 31.61 30.88 32.09 30.28 32.42 29.67 C 32.75 29.05 32.92 28.44 32.92 27.86 C 32.92 27.3 32.77 26.8 32.46 26.34 C 32.16 25.89 31.8 25.54 31.39 25.29 L 31.39 25.29 Z M 27.02 31.24 C 25.72 32.26 24.07 32.87 22.08 33.07 C 20.78 33.19 19.55 33.1 18.4 32.8 C 17.26 32.5 16.33 32.03 15.61 31.39 C 14.9 30.75 14.5 30.01 14.42 29.18 C 14.3 27.92 14.89 26.77 16.2 25.75 C 17.5 24.72 19.15 24.11 21.14 23.91 C 22.44 23.79 23.67 23.88 24.81 24.18 C 25.96 24.49 26.89 24.96 27.61 25.6 C 28.32 26.24 28.72 26.97 28.8 27.8 C 28.92 29.07 28.33 30.21 27.02 31.24 L 27.02 31.24 Z M 27.02 31.24" />
    <path fill="#737373" fill-rule="evenodd" d="M 22.47 25.86 C 21.52 25.62 20.58 25.71 19.65 26.1 C 18.72 26.5 18.04 27.1 17.62 27.91 C 17.2 28.73 17.17 29.54 17.53 30.34 C 17.9 31.14 18.55 31.69 19.51 31.98 C 20.5 32.29 21.5 32.24 22.51 31.83 C 23.51 31.41 24.22 30.76 24.62 29.88 C 25.02 29.01 25.01 28.19 24.59 27.41 C 24.16 26.62 23.46 26.11 22.47 25.86 L 22.47 25.86 Z M 21.03 30.06 C 20.84 30.36 20.56 30.56 20.2 30.68 C 19.84 30.8 19.5 30.78 19.2 30.65 C 18.9 30.51 18.71 30.29 18.62 29.99 C 18.54 29.69 18.6 29.4 18.8 29.1 C 18.99 28.82 19.25 28.62 19.6 28.5 C 19.95 28.39 20.28 28.4 20.58 28.52 C 20.89 28.65 21.09 28.86 21.18 29.17 C 21.27 29.47 21.22 29.77 21.03 30.06 L 21.03 30.06 Z M 22.29 28.49 C 22.23 28.6 22.13 28.68 22 28.73 C 21.86 28.78 21.73 28.78 21.61 28.74 C 21.34 28.62 21.28 28.42 21.44 28.15 C 21.5 28.04 21.59 27.96 21.72 27.91 C 21.85 27.87 21.98 27.86 22.1 27.91 C 22.22 27.95 22.3 28.03 22.34 28.15 C 22.38 28.26 22.36 28.38 22.29 28.49 L 22.29 28.49 Z M 22.29 28.49" />
    <path fill="#737373" fill-rule="evenodd" d="M 31.13 22.8 C 31.22 22.99 31.38 23.11 31.58 23.18 C 31.79 23.24 31.98 23.23 32.18 23.13 C 32.37 23.04 32.5 22.89 32.57 22.69 C 32.74 22.21 32.77 21.7 32.66 21.17 C 32.55 20.63 32.3 20.16 31.93 19.76 C 31.55 19.35 31.1 19.07 30.58 18.91 C 30.05 18.75 29.52 18.72 28.98 18.84 C 28.77 18.88 28.6 18.99 28.49 19.17 C 28.37 19.34 28.34 19.54 28.38 19.74 C 28.42 19.95 28.53 20.11 28.72 20.22 C 28.9 20.34 29.1 20.37 29.32 20.33 C 29.88 20.22 30.36 20.37 30.75 20.78 C 31.14 21.2 31.25 21.68 31.07 22.22 C 31.01 22.42 31.03 22.61 31.13 22.8 L 31.13 22.8 Z M 31.13 22.8" />
    <path fill="#737373" fill-rule="evenodd" d="M 35.86 20.53 C 35.63 19.43 35.13 18.47 34.35 17.64 C 33.57 16.8 32.65 16.22 31.57 15.9 C 30.49 15.57 29.4 15.52 28.3 15.75 C 28.05 15.8 27.86 15.93 27.72 16.13 C 27.58 16.33 27.54 16.56 27.59 16.8 C 27.65 17.04 27.78 17.23 27.99 17.36 C 28.21 17.5 28.44 17.54 28.69 17.49 C 29.47 17.33 30.24 17.37 31 17.6 C 31.77 17.83 32.43 18.24 32.99 18.84 C 33.54 19.42 33.9 20.11 34.06 20.89 C 34.22 21.66 34.17 22.41 33.92 23.12 C 33.85 23.35 33.87 23.58 33.99 23.79 C 34.11 24.01 34.28 24.16 34.52 24.23 C 34.77 24.31 35 24.3 35.22 24.18 C 35.44 24.07 35.6 23.9 35.68 23.66 C 36.02 22.67 36.08 21.62 35.86 20.53 L 35.86 20.53 Z M 35.86 20.53" />
</svg>