<?xml version="1.0" encoding="utf-8"?>
<!-- Generator: Avocode 2.4.5 - http://avocode.com -->
<svg height="49" width="48" xmlns:xlink="http://www.w3.org/1999/xlink" xmlns="http://www.w3.org/2000/svg" viewBox="0 0 48 49">
    <path stroke-linejoin="miter" stroke-linecap="butt" stroke-width="1" stroke="#737373" fill="none" fill-rule="evenodd" d="M 0 24.58 C 0 11.32 10.74 0.58 24 0.58 L 24 0.58 C 37.25 0.58 48 11.32 48 24.58 L 48 24.58 C 48 37.83 37.26 48.58 24 48.58 L 24 48.58 C 10.75 48.58 0 37.84 0 24.58 L 0 24.58 Z M 0 24.58" />
    <path fill="#737373" fill-rule="evenodd" d="M 35.28 28.03 C 35.28 24.76 32.03 22.11 28.02 22.11 C 24 22.11 20.75 24.76 20.75 28.03 C 20.75 31.3 24 33.95 28.02 33.95 C 29.28 33.95 30.46 33.69 31.5 33.23 L 34.36 34.42 L 34.03 31.35 C 34.82 30.4 35.28 29.26 35.28 28.03 L 35.28 28.03 Z M 25.57 26.43 C 25 26.43 24.53 25.98 24.53 25.43 C 24.53 24.89 25 24.44 25.57 24.44 C 26.14 24.44 26.6 24.89 26.6 25.43 C 26.6 25.98 26.14 26.43 25.57 26.43 L 25.57 26.43 Z M 30.46 26.43 C 29.89 26.43 29.43 25.98 29.43 25.43 C 29.43 24.89 29.89 24.44 30.46 24.44 C 31.04 24.44 31.5 24.89 31.5 25.43 C 31.5 25.98 31.04 26.43 30.46 26.43 L 30.46 26.43 Z M 30.46 26.43" />
    <path fill="#737373" fill-rule="evenodd" d="M 28.02 21.33 C 29.14 21.33 30.21 21.52 31.18 21.86 C 31.19 21.74 31.21 21.62 31.21 21.49 C 31.21 17.17 26.9 13.67 21.6 13.67 C 16.3 13.67 12 17.17 12 21.49 C 12 23.12 12.61 24.63 13.65 25.88 L 13.21 29.93 L 17 28.36 C 17.94 28.78 18.97 29.06 20.06 29.2 C 19.98 28.82 19.93 28.43 19.93 28.03 C 19.93 24.33 23.56 21.33 28.02 21.33 L 28.02 21.33 Z M 24.84 16.75 C 25.59 16.75 26.2 17.34 26.2 18.06 C 26.2 18.78 25.59 19.37 24.84 19.37 C 24.08 19.37 23.47 18.78 23.47 18.06 C 23.47 17.34 24.09 16.75 24.84 16.75 L 24.84 16.75 Z M 18.37 19.37 C 17.61 19.37 17 18.78 17 18.06 C 17 17.34 17.61 16.75 18.37 16.75 C 19.12 16.75 19.73 17.34 19.73 18.06 C 19.73 18.78 19.12 19.37 18.37 19.37 L 18.37 19.37 Z M 18.37 19.37" />
</svg>