<svg xmlns="http://www.w3.org/2000/svg" width="97" height="92" viewBox="0 0 97 92"><path d="M46.76.64L2.4 36.08a3.74 3.74 0 1 0 2.32 6.68h5.44v45.48A3.75 3.75 0 0 0 13.88 92h23.64c1.64 0 3-1.36 3-3V63.12a8.13 8.13 0 0 1 16.24 0V89c0 1.64 1.36 3 3 3H83.4a3.76 3.76 0 0 0 3.76-3.76V42.76h5.4a3.74 3.74 0 0 0 2.32-6.68L50.52.64a3.05 3.05 0 0 0-3.76 0zM93 38.44c.56.44.24 1.32-.44 1.32h-8.4v48.48c0 .44-.36.76-.76.76H59.76V63.12a11.12 11.12 0 0 0-22.24 0V89H13.88c-.4 0-.72-.32-.72-.76V39.76H4.72c-.68 0-1-.88-.44-1.32L48.64 3z"/></svg>