<svg xmlns="http://www.w3.org/2000/svg" width="97" height="92" viewBox="0 0 97 92"><path fill="#6fb0e0" d="M58.28 89c-.84 0-1.52-.68-1.52-1.48V61.64a9.64 9.64 0 0 0-9.6-9.64 9.65 9.65 0 0 0-9.64 9.64v25.88c0 .8-.68 1.48-1.48 1.48H12.4c-1.24 0-2.24-1-2.24-2.24v-47H3.24c-.96 0-1.8-.6-2.12-1.52a2.2 2.2 0 0 1 .72-2.48L46.2.32c.28-.2.6-.32.96-.32.32 0 .64.12.92.32l44.36 35.44c.76.6 1.04 1.6.72 2.48a2.2 2.2 0 0 1-2.12 1.52h-6.88v47c0 1.24-1 2.24-2.24 2.24z"/><path fill="#6fb0e0" d="M46.76.64L2.4 36.08a3.74 3.74 0 1 0 2.32 6.68h5.44v45.48A3.75 3.75 0 0 0 13.88 92h23.64c1.64 0 3-1.36 3-3V63.12a8.13 8.13 0 0 1 16.24 0V89c0 1.64 1.36 3 3 3H83.4a3.76 3.76 0 0 0 3.76-3.76V42.76h5.4c1.6 0 3-1 3.52-2.52a3.77 3.77 0 0 0-1.2-4.16L50.52.64a3.05 3.05 0 0 0-3.76 0zM93 38.44c.56.44.24 1.32-.44 1.32h-8.4v48.48c0 .44-.36.76-.76.76H59.76V63.12a11.12 11.12 0 0 0-22.24 0V89H13.88c-.4 0-.72-.32-.72-.76V39.76H4.72c-.68 0-1-.88-.44-1.32L48.64 3z"/></svg>