<svg xmlns="http://www.w3.org/2000/svg" width="25" height="22" viewBox="0 0 25 22"><path fill="#6fb0e0" d="M18.99 21.85c-.21 0-.42-.06-.6-.17l-5.67-3.44a.35.35 0 0 0-.18-.05.34.34 0 0 0-.17.05L6.7 21.68a1.16 1.16 0 0 1-1.51-.26c-.22-.27-.3-.62-.22-.96l1.57-6.59a.3.3 0 0 0-.12-.32l-4.99-4a1.1 1.1 0 0 1-.38-1.2c.14-.44.53-.75.99-.8l6.32-.59a.36.36 0 0 0 .28-.19L11.5.66c.19-.41.59-.66 1.04-.66.46 0 .86.25 1.05.66l2.86 6.11c.05.1.16.18.27.19l6.32.59c.47.05.86.36 1 .8.14.44-.01.91-.38 1.2l-4.99 4a.3.3 0 0 0-.12.32l1.57 6.59c.08.34 0 .69-.22.96s-.56.43-.91.43"/></svg>