<svg xmlns="http://www.w3.org/2000/svg" width="24" height="23" viewBox="0 0 24 23"><path d="M.39 8.46a.37.37 0 0 1-.31-.15.4.4 0 0 1 .08-.55l2.3-1.68a.38.38 0 0 1 .54.08c.13.17.09.41-.08.54L.62 8.39a.39.39 0 0 1-.23.07M22.68 8.39a.36.36 0 0 1-.22-.07l-2.3-1.62a.4.4 0 0 1-.09-.54.4.4 0 0 1 .54-.09l2.3 1.61a.4.4 0 0 1 .09.54.4.4 0 0 1-.32.17M15.31 3.29a.36.36 0 0 1-.2-.06L11.27.85 7.6 3.23a.4.4 0 0 1-.54-.12.39.39 0 0 1 .12-.53L11.05.06a.4.4 0 0 1 .42 0l4.05 2.51a.39.39 0 0 1-.21.72"/><path fill="#6fb0e0" d="M16.74 11l-3.92 2.65a2.6 2.6 0 0 1-2.9 0L6 11"/><path fill="#6fb0e0" d="M11.59 13.8a3 3 0 0 1-1.67-.51L6 10.64l.43-.64 3.93 2.65c.74.5 1.71.5 2.46 0L16.74 10l.44.64-3.93 2.65c-.5.34-1.08.51-1.66.51"/><path fill="#6fb0e0" d="M17.19 10.83l3.44-2.33V4.07c0-.59-.35-1.07-.78-1.07H3.77C3.35 3 3 3.48 3 4.07V8.5l3.44 2.33"/><path fill="#6fb0e0" d="M16.79 11.54l-.43-.65 3.27-2.2V4.45c0-.38-.21-.67-.39-.67H3.16c-.18 0-.38.29-.38.67v4.24l3.27 2.2-.44.65L2 9.1V4.45C2 3.64 2.51 3 3.16 3h16.08c.65 0 1.16.64 1.16 1.45V9.1z"/><path d="M.78 8.12v12.87c0 .5.4.9.9.9h19.64c.5 0 .9-.4.9-.9V8.12l-9.05 6.11a2.99 2.99 0 0 1-3.34 0zm.9 14.55c-.93 0-1.68-.75-1.68-1.68V7.39c0-.15.08-.28.21-.34a.37.37 0 0 1 .39.02l9.67 6.51c.75.51 1.71.51 2.46 0l9.67-6.51a.37.37 0 0 1 .39-.02c.13.06.21.19.21.34v13.6c0 .93-.75 1.68-1.68 1.68z"/></svg>